<?xml version="1.0" encoding="iso-8859-1"?>

<svg height="800px" width="800px" version="1.1" id="Layer_1" xmlns="http://www.w3.org/2000/svg"
	xmlns:xlink="http://www.w3.org/1999/xlink" viewBox="0 0 512 512" xml:space="preserve">
	<path style="fill:#fff;" d="M402.491,274.289c-1.084-2.619-3.637-4.321-6.468-4.321h-84.014V94.94
	c0-3.87-3.135-7.002-7.002-7.002h-98.016c-3.867,0-7.002,3.132-7.002,7.002v175.028h-84.014c-2.831,0-5.385,1.702-6.468,4.321
	c-1.084,2.619-0.485,5.627,1.515,7.63l140.022,140.092c1.316,1.313,3.098,2.051,4.954,2.051c1.856,0,3.637-0.738,4.954-2.051
	l140.022-140.092C402.976,279.916,403.574,276.908,402.491,274.289z M256,407.154L132.875,283.97h74.117
	c3.867,0,7.002-3.132,7.002-7.002V101.94h84.014v175.028c0,3.87,3.135,7.002,7.002,7.002h74.117L256,407.154z" />
</svg>