<?xml version="1.0" encoding="UTF-8"?>
<!DOCTYPE svg PUBLIC "-//W3C//DTD SVG 1.1//EN" "http://www.w3.org/Graphics/SVG/1.1/DTD/svg11.dtd">
<svg xmlns="http://www.w3.org/2000/svg" xml:space="preserve" width="6.82666in" height="6.82666in"
  style="shape-rendering:geometricPrecision; text-rendering:geometricPrecision; image-rendering:optimizeQuality; fill-rule:evenodd; clip-rule:evenodd"
  viewBox="0 0 6.82666 6.82666" xmlns:xlink="http://www.w3.org/1999/xlink">
  <defs>
    <style type="text/css">
      <![CDATA[
      .fil2 {
        fill: none
      }

      .fil1 {
        fill: #4E342E
      }

      .fil3 {
        fill: #558B2F
      }

      .fil0 {
        fill: #6D4C41
      }

      .fil4 {
        fill: #7CB342
      }
      ]]>
    </style>
    <clipPath id="id0">
      <path
        d="M3.41333 -3.93701e-006c1.88514,0 3.41333,1.52819 3.41333,3.41333 0,1.88514 -1.52819,3.41333 -3.41333,3.41333 -1.88514,0 -3.41333,-1.52819 -3.41333,-3.41333 0,-1.88514 1.52819,-3.41333 3.41333,-3.41333z" />
    </clipPath>
  </defs>
  <g id="Layer_x0020_1">
    <path class="fil0"
      d="M3.41333 -3.93701e-006c1.88514,0 3.41333,1.52819 3.41333,3.41333 0,1.88514 -1.52819,3.41333 -3.41333,3.41333 -1.88514,0 -3.41333,-1.52819 -3.41333,-3.41333 0,-1.88514 1.52819,-3.41333 3.41333,-3.41333z" />
    <g style="clip-path:url(#id0)">
      <g id="_351300992">
        <g>
          <polygon id="_3541429041" class="fil1"
            points="2.22974,1.5474 6.01601,5.33367 6.01601,5.76513 2.22974,1.97886 " />
          <polygon id="_354143072" class="fil1"
            points="4.75736,2.1074 8.54363,5.89367 8.5495,5.90065 8.55519,5.90775 8.56069,5.91498 8.56601,5.92232 8.57113,5.92978 8.57607,5.93736 8.58081,5.94504 8.58536,5.95283 8.58971,5.96072 8.59387,5.96871 8.59783,5.97679 8.60159,5.98497 8.60515,5.99323 8.6085,6.00158 8.61165,6.01001 8.61459,6.01851 8.61732,6.02709 8.61985,6.03574 8.62216,6.04446 8.62426,6.05324 8.62615,6.06208 8.62782,6.07097 8.62927,6.07992 8.6305,6.08892 8.63152,6.09796 8.63231,6.10705 8.63287,6.11617 8.63322,6.12533 8.63333,6.13452 8.63333,8.38393 4.84706,4.59765 4.84706,2.34825 4.84695,2.33906 4.84661,2.3299 4.84604,2.32078 4.84525,2.31169 4.84424,2.30265 4.843,2.29365 4.84155,2.2847 4.83988,2.27581 4.838,2.26696 4.83589,2.25819 4.83358,2.24947 4.83106,2.24082 4.82832,2.23224 4.82538,2.22374 4.82223,2.21531 4.81888,2.20696 4.81532,2.1987 4.81156,2.19052 4.8076,2.18244 4.80344,2.17445 4.79909,2.16656 4.79454,2.15877 4.7898,2.15109 4.78487,2.14351 4.77974,2.13605 4.77443,2.1287 4.76892,2.12148 4.76323,2.11438 " />
          <polygon id="_354142544" class="fil1" points="5.28,4.59765 9.06627,8.38393 9.06627,8.63407 5.28,4.8478 " />
          <polygon id="_354142976" class="fil1" points="5.28,4.8478 9.06627,8.63407 8.63333,8.63407 4.84706,4.8478 " />
          <polygon id="_354142688" class="fil1"
            points="1.9796,2.22901 5.76587,6.01528 5.33293,6.01528 1.54666,2.22901 " />
          <polygon id="_354143120" class="fil1"
            points="4.59692,4.8478 8.38319,8.63407 6.13525,8.63407 6.12606,8.63396 6.1169,8.63361 6.10778,8.63305 6.09869,8.63226 6.08965,8.63124 6.08065,8.63001 6.0717,8.62856 6.06281,8.62689 6.05397,8.625 6.04519,8.6229 6.03647,8.62059 6.02782,8.61806 6.01924,8.61533 6.01074,8.61239 6.00231,8.60924 5.99396,8.60589 5.9857,8.60233 5.97752,8.59857 5.96944,8.59461 5.96145,8.59045 5.95356,8.5861 5.94577,8.58155 5.93809,8.57681 5.93052,8.57187 5.92306,8.56675 5.91571,8.56143 5.90848,8.55593 5.90138,8.55024 5.89441,8.54437 2.10814,4.7581 2.11511,4.76397 2.12222,4.76966 2.12944,4.77516 2.13679,4.78048 2.14425,4.7856 2.15182,4.79054 2.1595,4.79528 2.16729,4.79983 2.17518,4.80418 2.18317,4.80834 2.19125,4.8123 2.19943,4.81606 2.20769,4.81961 2.21604,4.82297 2.22447,4.82612 2.23297,4.82906 2.24156,4.83179 2.2502,4.83432 2.25892,4.83663 2.2677,4.83873 2.27654,4.84062 2.28544,4.84229 2.29439,4.84374 2.30338,4.84497 2.31243,4.84599 2.32151,4.84678 2.33063,4.84734 2.3398,4.84769 2.34898,4.8478 " />
          <polygon id="_354143528" class="fil1"
            points="4.84706,4.8478 8.63333,8.63407 8.63333,9.06553 4.84706,5.27926 " />
          <polygon id="_354143480" class="fil1"
            points="4.84706,5.27926 8.63333,9.06553 8.38319,9.06553 4.59692,5.27926 " />
        </g>
        <path id="_351301880" class="fil1"
          d="M2.22974 1.5474l0 0.431461 2.24794 0c0.098189,0 0.191598,0.0390236 0.260976,0.108409 0.0693858,0.0693819 0.108409,0.162791 0.108409,0.260976l0 2.24941 0.432937 0 0 0.250146 -0.432937 0 0 0.431461 -0.250142 0 0 -0.431461 -2.24794 0c-0.098189,0 -0.191598,-0.0390236 -0.260976,-0.108409 -0.0693858,-0.0693819 -0.108409,-0.162787 -0.108409,-0.260976l0 -2.24941 -0.432937 0 0 -0.250146 0.432937 0 0 -0.431461 0.250142 0z" />
      </g>
    </g>
    <path class="fil2"
      d="M3.41333 -3.93701e-006c1.88514,0 3.41333,1.52819 3.41333,3.41333 0,1.88514 -1.52819,3.41333 -3.41333,3.41333 -1.88514,0 -3.41333,-1.52819 -3.41333,-3.41333 0,-1.88514 1.52819,-3.41333 3.41333,-3.41333z" />
    <path class="fil3"
      d="M1.54666 1.97886l0.544449 0 0 0.250146 -0.544449 0 0 -0.250146zm0.622224 0l2.30879 0c0.098189,0 0.191598,0.0390236 0.26098,0.108409 0.0693819,0.0693819 0.108406,0.162791 0.108406,0.260976l0 2.33821 -0.250142 0 0 -2.33821c0,-0.0317323 -0.0127323,-0.0617165 -0.035126,-0.0841142 -0.0224016,-0.0223976 -0.0523898,-0.035126 -0.0841181,-0.035126l-2.30879 0 0 -0.250146zm2.67818 2.8138l0 0.486594 -0.250142 0 0 -0.486594 0.250142 0z" />
    <path class="fil4"
      d="M5.28 4.8478l-2.93102 0c-0.098189,0 -0.191598,-0.0390236 -0.26098,-0.108409 -0.0693819,-0.0693819 -0.108406,-0.162787 -0.108406,-0.260976l0 -2.93101 0.250142 0 0 2.93101c0,0.0317323 0.0127323,0.0617165 0.035126,0.0841142 0.0224016,0.0223976 0.0523858,0.035126 0.0841181,0.035126l2.93102 0 0 0.250146z" />
  </g>
</svg>