<?xml version="1.0" encoding="UTF-8"?>
<!DOCTYPE svg PUBLIC "-//W3C//DTD SVG 1.1//EN" "http://www.w3.org/Graphics/SVG/1.1/DTD/svg11.dtd">

<svg xmlns="http://www.w3.org/2000/svg" xml:space="preserve" width="2048px" height="2048px"
  style="shape-rendering:geometricPrecision; text-rendering:geometricPrecision; image-rendering:optimizeQuality; fill-rule:evenodd; clip-rule:evenodd"
  viewBox="0 0 2048 2048" xmlns:xlink="http://www.w3.org/1999/xlink">
  <defs>
    <style type="text/css">
      <![CDATA[
      .fil1 {
        fill: none
      }

      .fil0 {
        fill: #000000
      }

      .fil2 {
        fill: #FFFFFE;
        fill-rule: nonzero
      }
      ]]>
    </style>
  </defs>
  <g id="Layer_x0020_1">
    <rect class="fil0" width="2048" height="2048" rx="256.001" ry="256.001" />
    <rect class="fil1" x="255.999" y="255.999" width="1536" height="1536" />
    <g id="_406793184">
      <path id="_406794552" class="fil2"
        d="M1237.12 937.413c-26.9551,26.9551 -59.4154,48.7867 -95.7024,63.8221 -34.8213,14.4284 -72.7867,22.3949 -112.365,22.3949 -39.587,0 -77.5548,-7.96418 -112.378,-22.3902 -36.287,-15.0307 -68.7426,-36.8575 -95.6977,-63.8126 -26.9528,-26.954 -48.7796,-59.413 -63.8115,-95.6989 -14.4248,-34.8248 -22.389,-72.7949 -22.389,-112.38 0,-39.587 7.96418,-77.5571 22.3878,-112.383 15.0319,-36.2859 36.8563,-68.7414 63.8115,-95.6953 26.9516,-26.9516 59.4083,-48.7784 95.6942,-63.8103 34.8248,-14.4236 72.7985,-22.3878 112.383,-22.3878 39.5811,0 77.5465,7.96536 112.37,22.3914 36.287,15.0331 68.7438,36.8634 95.7001,63.8174 26.9551,26.9551 48.7831,59.4095 63.8174,95.6989 14.4284,34.8213 22.3937,72.7879 22.3937,112.369 0,39.6922 -7.96536,77.7095 -22.3949,112.531l-0.0602363 -0.0248032c-15.0331,36.2339 -36.8386,68.6386 -63.7583,95.5583zm-532.67 675.513l-27.0473 0 -51.2162 0 -42.6189 0 0 -42.6189 0 -51.2162 0 -27.0484 0 -111.762c0,-18.8776 1.63465,-38.0268 4.78819,-57.2682 3.12874,-19.0866 7.81772,-37.8945 13.9453,-56.2619 6.08386,-18.241 13.6606,-36.0024 22.6004,-53.1237 9.21733,-17.6516 19.4351,-33.9709 30.528,-48.8044 11.2642,-15.065 24.0603,-29.5311 38.2618,-43.2378 13.5886,-13.1209 28.5591,-25.4303 44.7886,-36.7819 16.0158,-11.2028 32.7201,-21.0756 49.9748,-29.4614 17.2831,-8.40001 35.2429,-15.4606 53.7473,-21.0366l14.0646 -4.23662 26.6292 -8.02205 22.1599 -6.6756 17.6268 15.1654 21.1831 18.2244 11.1874 9.62363c2.25236,1.93701 5.10591,4.14449 8.53465,6.60119 3.26221,2.3374 6.26693,4.32166 8.99764,5.93623 3.41221,2.01851 6.64961,3.7689 9.68977,5.23229 2.45197,1.1811 5.51221,2.45551 9.1689,3.81142l0 0.166536c2.39528,0.88819 5.37756,1.81063 8.93623,2.75788 2.9126,0.773623 6.45237,1.53425 10.6075,2.27244 3.31772,0.589371 6.83859,1.04764 10.5508,1.3689 3.50788,0.303544 7.15394,0.457087 10.9228,0.457087 3.69449,0 7.29095,-0.153543 10.7693,-0.457087 3.65788,-0.317717 7.15276,-0.777166 10.4669,-1.36772 3.45473,-0.614174 6.79252,-1.36181 9.99804,-2.22402l-0.0106299 -0.0401575c3.68622,-1.00039 7.00158,-2.04685 9.92717,-3.12874 4.14803,-1.53425 7.47875,-2.89488 9.9815,-4.07008 3.01063,-1.41496 5.94922,-2.96457 8.79331,-4.63465 1.98071,-1.16457 4.80827,-3.0626 8.46142,-5.67756 3.42048,-2.45197 6.27874,-4.65473 8.5382,-6.58583l11.8961 -10.1681 22.526 -19.2543 18.7441 -16.0217 23.2075 8.36457 27.8894 10.0524 14.726 5.30906c19.8697,7.16103 37.8355,14.8347 53.9209,23.0351 16.7043,8.51575 32.5985,18.1252 47.7166,28.8508 15.4252,10.9453 29.6386,22.878 42.6709,35.8122 13.0595,12.9626 24.8894,26.9055 35.5193,41.8418 10.5437,14.8169 19.7717,30.424 27.7181,46.8414 7.75512,16.0205 14.387,33.1607 19.9347,51.43 5.23819,17.25 9.33072,35.0729 12.3189,53.5004 2.93977,18.1193 4.83898,36.9107 5.73898,56.3906l0.0484252 0.531496 0.333071 3.82796 0 1.15984 0 42.6177 -0.338977 0 0.0425197 69.1193 0.0153543 27.0484 0.0283465 51.2162 0.022441 42.6189 -42.4737 0 -51.0449 0 -26.9587 0 -649.138 0z" />
      <path id="_406794288" class="fil2"
        d="M1631.52 858.483c-13.3913,13.3913 -29.5181,24.2386 -47.5477,31.7091 -17.2996,7.16812 -36.1607,11.1272 -55.8272,11.1272 -19.6677,0 -38.5311,-3.95906 -55.8319,-11.126 -18.0284,-7.46693 -34.1528,-18.3106 -47.5453,-31.7032 -13.3913,-13.3925 -24.2351,-29.5193 -31.7032,-47.5465 -7.16693,-17.302 -11.1248,-36.1666 -11.1248,-55.8331 0,-19.6689 3.95788,-38.5335 11.1224,-55.8367 7.4693,-18.026 18.313,-34.1528 31.7055,-47.5453 13.389,-13.389 29.5158,-24.2327 47.5429,-31.7008 17.302,-7.16693 36.1677,-11.1236 55.8343,-11.1236 19.6666,0 38.5276,3.95788 55.8308,11.1248 18.0272,7.47048 34.1528,18.3154 47.5465,31.7067 13.3925,13.3902 24.2362,29.517 31.7067,47.5465 7.16812,17.2996 11.1248,36.163 11.1248,55.8284 0,19.7197 -3.9567,38.6091 -11.1248,55.9087l-0.0318898 -0.0129921c-7.46812,18.0024 -18.3012,34.102 -31.6772,47.4768zm-317.469 170.245c0.648426,-2.21693 1.33937,-4.42796 2.07166,-6.62126 3.02362,-9.06261 6.78662,-17.889 11.2299,-26.3918 4.57914,-8.77087 9.65552,-16.8803 15.1665,-24.2492 5.59725,-7.48465 11.9551,-14.6717 19.0099,-21.4807 6.75119,-6.51969 14.1886,-12.6354 22.2532,-18.2752 7.95591,-5.56654 16.2543,-10.4717 24.828,-14.6362 8.58544,-4.1752 17.5087,-7.68308 26.7024,-10.4528l6.98741 -2.10473 13.2307 -3.98622 11.0102 -3.31536 8.7567 7.53426 10.5248 9.05434 5.55945 4.77992c1.1185,0.962599 2.53583,2.05984 4.24016,3.27992 1.61929,1.16221 3.11339,2.14725 4.46929,2.94921 1.6937,1.00394 3.30355,1.87323 4.813,2.60079 1.2189,0.585827 2.73898,1.22008 4.5567,1.89331l0 0.0814961c1.18937,0.442914 2.67166,0.900001 4.43977,1.37008 1.44685,0.386221 3.20551,0.762993 5.2689,1.13032 1.65,0.294095 3.39803,0.520867 5.24292,0.679134 1.74331,0.152362 3.55512,0.227953 5.42717,0.227953 1.83543,0 3.62244,-0.0755906 5.34922,-0.227953 1.8189,-0.157087 3.55512,-0.38504 5.20158,-0.679134 1.71614,-0.305906 3.37441,-0.675591 4.96654,-1.10433l-0.00472441 -0.0212599c1.83071,-0.496063 3.47835,-1.01575 4.93111,-1.55315 2.06103,-0.761812 3.71693,-1.43858 4.96181,-2.02205 1.4941,-0.703938 2.95394,-1.47165 4.36772,-2.30197 0.982678,-0.579922 2.38937,-1.52362 4.20355,-2.82284 1.69961,-1.21654 3.11811,-2.31142 4.24134,-3.26929l5.91024 -5.05276 11.1921 -9.56694 9.31182 -7.95945 11.5311 4.1563 13.8567 4.9937 7.31575 2.63622c9.87166,3.55866 18.7973,7.37245 26.7898,11.4449 8.30079,4.23189 16.1953,9.00591 23.7059,14.3351 7.66418,5.4378 14.726,11.3658 21.2008,17.7921 6.48898,6.43938 12.3673,13.3689 17.6469,20.7886 5.24056,7.36064 9.82205,15.1158 13.7717,23.2713 3.85276,7.95945 7.14804,16.4764 9.90355,25.552 2.60197,8.57127 4.63583,17.426 6.12048,26.5819 1.46102,9.00119 2.40473,18.3378 2.85236,28.017l0.0236221 0.263386 0.166536 1.9004 0 0.577559 0 21.1736 -0.170079 0 0.0200788 34.3394 0.00826772 13.4398 0.0153543 25.4445 0.00944883 21.176 -21.1016 0 -25.3606 0 -13.3925 0 -215.493 0c-8.87363,-18.2197 -19.213,-35.6729 -30.965,-52.1835 -12.0354,-16.9134 -25.4847,-32.7544 -40.2189,-47.3788 -14.863,-14.7532 -30.9544,-28.2047 -48.0343,-40.3217 -13.0512,-9.25985 -26.6162,-17.7626 -40.6229,-25.4858z" />
      <path id="_406794864" class="fil2"
        d="M623.343 858.483c-13.3925,13.3913 -29.5181,24.2386 -47.5477,31.7091 -17.2996,7.16812 -36.1618,11.1272 -55.8272,11.1272 -19.6677,0 -38.5311,-3.95906 -55.8331,-11.126 -18.0272,-7.46693 -34.1516,-18.3106 -47.5441,-31.7032 -13.3913,-13.3925 -24.2351,-29.5193 -31.7032,-47.5465 -7.16693,-17.302 -11.1248,-36.1666 -11.1248,-55.8331 0,-19.6689 3.95788,-38.5335 11.1224,-55.8367 7.4693,-18.026 18.313,-34.1528 31.7055,-47.5453 13.389,-13.389 29.5158,-24.2327 47.5429,-31.7008 17.302,-7.16693 36.1677,-11.1236 55.8343,-11.1236 19.6654,0 38.5276,3.95788 55.8308,11.1248 18.0272,7.47048 34.1516,18.3154 47.5465,31.7067 13.3925,13.3902 24.2362,29.517 31.7067,47.5465 7.16812,17.2996 11.1248,36.163 11.1248,55.8284 0,19.7197 -3.9567,38.6091 -11.1248,55.9087l-0.0318898 -0.0129921c-7.46812,18.0024 -18.3012,34.102 -31.6772,47.4768zm-264.646 335.615l-13.4374 0 -25.4469 0 -21.1736 0 0 -21.176 0 -25.4445 0 -13.4398 0 -55.526c0,-9.37796 0.81378,-18.8929 2.37992,-28.4516 1.55433,-9.48426 3.88229,-18.8268 6.92717,-27.9532 3.02362,-9.06261 6.78662,-17.889 11.2299,-26.3918 4.57914,-8.77087 9.65552,-16.8803 15.1665,-24.2492 5.59725,-7.48465 11.9551,-14.6717 19.0099,-21.4807 6.75119,-6.51969 14.1886,-12.6354 22.2532,-18.2752 7.95591,-5.56654 16.2543,-10.4717 24.828,-14.6362 8.58544,-4.1752 17.5087,-7.68308 26.7024,-10.4528l6.98741 -2.10473 13.2307 -3.98622 11.0102 -3.31536 8.7567 7.53426 10.5248 9.05434 5.55945 4.77992c1.1185,0.962599 2.53583,2.05984 4.24016,3.27992 1.61929,1.16221 3.11339,2.14725 4.46929,2.94921 1.6937,1.00394 3.30355,1.87323 4.813,2.60079 1.2189,0.585827 2.73898,1.22008 4.5567,1.89331l0 0.0814961c1.18937,0.442914 2.67166,0.900001 4.43977,1.37008 1.44685,0.386221 3.20551,0.762993 5.2689,1.13032 1.65,0.294095 3.39803,0.520867 5.24292,0.679134 1.74331,0.152362 3.55512,0.227953 5.42717,0.227953 1.83543,0 3.62244,-0.0755906 5.34922,-0.227953 1.8189,-0.157087 3.55512,-0.38504 5.20158,-0.679134 1.71614,-0.305906 3.37441,-0.675591 4.96654,-1.10433l-0.00472441 -0.0212599c1.83071,-0.496063 3.47717,-1.01575 4.93111,-1.55315 2.06103,-0.761812 3.71693,-1.43858 4.96063,-2.02205 1.49528,-0.703938 2.95512,-1.47165 4.3689,-2.30197 0.982678,-0.579922 2.38937,-1.52362 4.20237,-2.82284 1.70079,-1.21654 3.11929,-2.31142 4.24252,-3.26929l5.91024 -5.05276 11.191 -9.56694 9.313 -7.95945 11.5311 4.1563 13.8567 4.9937 7.31575 2.63622c9.87166,3.55866 18.7973,7.37245 26.7898,11.4449 8.29961,4.23189 16.1953,9.00591 23.7059,14.3351 7.66418,5.4378 14.726,11.3658 21.2008,17.7921 6.48898,6.43938 12.3662,13.3689 17.6469,20.7886 5.23937,7.36064 9.82205,15.1158 13.7717,23.2713 3.85276,7.95945 7.14804,16.4764 9.90355,25.552 1.43622,4.7315 2.69882,9.54804 3.79252,14.4555 -7.39489,4.5189 -14.648,9.27284 -21.7512,14.2406 -17.6788,12.365 -34.4386,26.0575 -49.963,41.0433 -15.5043,14.9669 -29.8843,31.1162 -42.7926,48.378 -12.8705,17.2122 -24.2292,35.5524 -34.174,54.6012l-0.102756 0.194882 -228.33 0z" />
    </g>
  </g>
</svg>